<svg width="87" height="11" viewBox="0 0 87 11" fill="none" xmlns="http://www.w3.org/2000/svg">
<g clip-path="url(#clip0_12_489)">
<path fill-rule="evenodd" clip-rule="evenodd" d="M6.0141 1.72814C6.35016 1.32398 6.5882 0.773484 6.5882 0.216018C6.5882 0.139366 6.5812 0.0627149 6.5672 0C6.0211 0.020905 5.36298 0.362353 4.97091 0.822262C4.66285 1.17068 4.3758 1.72814 4.3758 2.28561C4.3758 2.36923 4.3898 2.45285 4.3968 2.48072C4.43181 2.48769 4.48782 2.49466 4.54383 2.49466C5.03392 2.49466 5.65003 2.16715 6.0141 1.72814ZM6.39917 2.61312C5.58002 2.61312 4.9149 3.10787 4.48782 3.10787C4.03274 3.10787 3.43763 2.64099 2.7235 2.64099C1.37225 2.64099 0 3.75593 0 5.85339C0 7.16344 0.504092 8.54316 1.13421 9.43511C1.67331 10.1877 2.14239 10.8079 2.82152 10.8079C3.49364 10.8079 3.78769 10.3619 4.62084 10.3619C5.468 10.3619 5.65703 10.7939 6.39917 10.7939C7.1343 10.7939 7.62439 10.125 8.08648 9.46298C8.60457 8.70343 8.82161 7.96479 8.82861 7.92995C8.7866 7.91602 7.37935 7.34461 7.37935 5.7419C7.37935 4.3552 8.48555 3.73502 8.54856 3.68624C7.82043 2.64099 6.70722 2.61312 6.39917 2.61312ZM11.5179 10.7312H13.4083L14.2624 8.13203H18.0221L18.8763 10.7312H20.7736L17.161 0.675927H15.1306L11.5179 10.7312ZM16.1248 2.46679H16.1668L17.5671 6.74534H14.7175L16.1248 2.46679ZM22.1638 2.28561C22.7099 2.28561 23.13 1.85357 23.13 1.33792C23.13 0.808325 22.7099 0.383258 22.1638 0.383258C21.6177 0.383258 21.1906 0.808325 21.1906 1.33792C21.1906 1.85357 21.6177 2.28561 22.1638 2.28561ZM21.2887 10.7312H23.032V3.34479H21.2887V10.7312ZM24.0791 10.7312H25.8224V6.4457C25.8224 5.35167 26.4175 4.73149 27.4047 4.73149C27.6987 4.73149 27.9648 4.7733 28.1118 4.82905V3.26117C27.9788 3.22633 27.7758 3.19149 27.5587 3.19149C26.7046 3.19149 26.0884 3.72805 25.8574 4.62H25.8224V3.34479H24.0791L24.0791 10.7312ZM28.7529 10.7312H30.5592V7.40733H32.6456C34.6899 7.40733 36.0832 6.05547 36.0832 4.0486V4.03466C36.0832 2.02081 34.6899 0.675927 32.6456 0.675927H28.7529V10.7312ZM32.1975 2.14624C33.4927 2.14624 34.2489 2.83611 34.2489 4.04163V4.05556C34.2489 5.26108 33.4927 5.95792 32.1975 5.95792H30.5592V2.14624H32.1975ZM39.7978 10.8776C41.9752 10.8776 43.3895 9.43511 43.3895 7.03801V7.02407C43.3895 4.6409 41.9542 3.19149 39.7908 3.19149C37.6344 3.19149 36.2061 4.65484 36.2061 7.02407V7.03801C36.2061 9.42814 37.6134 10.8776 39.7978 10.8776ZM39.8048 9.47692C38.6916 9.47692 37.9845 8.59194 37.9845 7.03801V7.02407C37.9845 5.49104 38.7056 4.59909 39.7908 4.59909C40.897 4.59909 41.6111 5.48407 41.6111 7.02407V7.03801C41.6111 8.58497 40.904 9.47692 39.8048 9.47692ZM46.838 10.8776C47.9092 10.8776 48.7283 10.348 49.1484 9.47692H49.1904V10.7312H50.9337V0.675927H49.1904V4.61303H49.1484C48.7283 3.72805 47.8812 3.19149 46.831 3.19149C44.9687 3.19149 43.7714 4.64787 43.7714 7.03104V7.038C43.7714 9.4142 44.9617 10.8776 46.838 10.8776ZM47.3631 9.4142C46.2429 9.4142 45.5498 8.50832 45.5498 7.03801V7.03104C45.5498 5.56072 46.2499 4.65484 47.3631 4.65484C48.4343 4.65484 49.1904 5.5886 49.1904 7.03104V7.03801C49.1904 8.48742 48.4413 9.4142 47.3631 9.4142ZM54.8654 10.8776C56.6857 10.8776 57.981 9.9438 57.981 8.55013V8.54316C57.981 7.47004 57.3858 6.87076 55.8526 6.52932L54.6133 6.25755C53.8432 6.08334 53.5561 5.80461 53.5561 5.37954V5.37257C53.5561 4.82904 54.0392 4.47366 54.8094 4.47366C55.6215 4.47366 56.0976 4.9057 56.1746 5.498L56.1816 5.55375H57.8059L57.7989 5.4771C57.7359 4.20189 56.6577 3.19149 54.8094 3.19149C53.017 3.19149 51.8338 4.10434 51.8338 5.45619V5.46316C51.8338 6.55719 52.548 7.24705 53.9692 7.56062L55.2015 7.83239C55.9716 8.0066 56.2306 8.25746 56.2306 8.70343V8.7104C56.2306 9.25393 55.7195 9.59538 54.8724 9.59538C53.9902 9.59538 53.5071 9.21909 53.3741 8.58497L53.3601 8.52225H51.6448L51.6518 8.58497C51.8058 9.95773 52.919 10.8776 54.8654 10.8776ZM61.2724 10.7312H62.9037V3.58172H62.9527L65.8652 10.7312H67.0905L70.003 3.58172H70.059V10.7312H71.6833V0.675927H69.5969L66.5024 8.35502H66.4533L63.3588 0.675927H61.2724V10.7312ZM74.8728 10.8566C75.853 10.8566 76.6791 10.3689 77.1062 9.59538H77.1482V10.7312H78.8915V5.65131C78.8915 4.16706 77.6943 3.19149 75.839 3.19149C73.9556 3.19149 72.8144 4.17403 72.7094 5.48407L72.7024 5.56769H74.3197L74.3337 5.50497C74.4457 4.96145 74.9498 4.57819 75.776 4.57819C76.6581 4.57819 77.1482 5.03113 77.1482 5.77674V6.28543L75.2089 6.40389C73.4095 6.51538 72.3873 7.3028 72.3873 8.61285V8.62678C72.3873 9.9438 73.3885 10.8566 74.8728 10.8566ZM74.1237 8.5571V8.55013C74.1237 7.96479 74.5928 7.59547 75.4539 7.53972L77.1482 7.4352V7.99266C77.1482 8.87067 76.3921 9.53266 75.3909 9.53266C74.6278 9.53266 74.1237 9.16334 74.1237 8.5571ZM79.3225 10.7312H81.1849L82.7182 8.08325H82.7602L84.3004 10.7312H86.2048L83.8384 6.9962L86.2258 3.34479H84.3214L82.8442 5.93701H82.8022L81.3109 3.34479H79.3505L81.724 7.04497L79.3225 10.7312Z" fill="white"/>
</g>
<defs>
<clipPath id="clip0_12_489">
<rect width="86.2258" height="10.8776" fill="white"/>
</clipPath>
</defs>
</svg>
