<svg width="34" height="34" viewBox="0 0 34 34" fill="none" xmlns="http://www.w3.org/2000/svg">
<g clip-path="url(#clip0_12_205)">
<path d="M7.58081 18.5247V26.0229C7.58081 26.3519 7.71151 26.6674 7.94414 26.9C8.17678 27.1327 8.49231 27.2634 8.82131 27.2634H10.1996C10.5286 27.2634 10.8442 27.1327 11.0768 26.9C11.3094 26.6674 11.4401 26.3519 11.4401 26.0229V18.0699C11.4474 17.9966 11.4474 17.9227 11.4401 17.8494C10.1881 18.2396 8.89095 18.4666 7.58081 18.5247Z" fill="#FF510B"/>
<path d="M4.56229 11.2195C4.11385 10.8948 3.56686 10.7352 3.01414 10.7679C2.46143 10.8005 1.93703 11.0234 1.52996 11.3987C0.82373 11.915 0.321957 12.6636 0.112748 13.513C-0.096462 14.3625 0.000265551 15.2585 0.385947 16.0437C0.743398 16.982 1.43003 17.7581 2.31772 18.2273C3.2054 18.6965 4.23349 18.8267 5.21011 18.5936C5.87613 18.4691 6.46744 18.09 6.85858 17.5368C7.24972 16.9835 7.40992 16.2996 7.30517 15.6302C7.2022 14.738 6.90282 13.8798 6.42856 13.1171C5.95429 12.3545 5.31693 11.7064 4.56229 11.2195ZM2.75668 17.2015C2.28672 17.0316 1.87626 16.7289 1.57527 16.33C1.27427 15.9311 1.09572 15.4533 1.06133 14.9548C1.06133 14.6516 1.06133 14.3483 1.40591 14.3208C1.98481 14.3208 3.63881 16.4848 3.47341 16.9258C3.30801 17.3669 3.05991 17.3118 2.75668 17.2015Z" fill="#FF510B"/>
<path d="M10.9164 5.83025C7.2225 5.56837 4.60367 8.58691 4.02477 9.46905C4.00779 9.49211 3.99708 9.51919 3.99371 9.54764C3.99033 9.57608 3.9944 9.60491 4.00552 9.63131C4.01663 9.65771 4.03441 9.68077 4.05712 9.69823C4.07982 9.71569 4.10667 9.72696 4.13504 9.73093C5.42628 10.2259 6.53874 11.0979 7.32779 12.2336C8.11685 13.3693 8.54601 14.716 8.55948 16.0988C8.55309 16.4128 8.52546 16.7259 8.47678 17.0361C8.47678 17.0361 8.47678 17.2015 8.61461 17.1739C14.0315 16.8431 15.203 13.2181 15.5063 11.7846C15.643 11.0864 15.6292 10.367 15.4658 9.67449C15.3024 8.98198 14.9932 8.33228 14.5588 7.76875C14.1245 7.20522 13.5749 6.74082 12.9468 6.40655C12.3187 6.07227 11.6265 5.8758 10.9164 5.83025ZM13.1631 9.96525L11.4264 11.3436C11.2435 11.4267 11.0376 11.4449 10.8429 11.3951C10.6482 11.3453 10.4763 11.2305 10.3557 11.0698C10.2351 10.909 10.1731 10.7119 10.1798 10.511C10.1865 10.3102 10.2616 10.1176 10.3927 9.96525L12.1431 8.58691C12.3254 8.50998 12.5282 8.49654 12.7191 8.54877C12.9099 8.601 13.0776 8.71585 13.1953 8.87488C13.313 9.03391 13.3738 9.22788 13.3679 9.42563C13.3621 9.62338 13.29 9.81343 13.1631 9.96525Z" fill="#FF510B"/>
<path d="M21.5985 18.0698V26.0228C21.5985 26.3518 21.7292 26.6673 21.9618 26.9C22.1945 27.1326 22.51 27.2633 22.839 27.2633H24.2173C24.5463 27.2633 24.8619 27.1326 25.0945 26.9C25.3271 26.6673 25.4578 26.3518 25.4578 26.0228V18.5247C24.1553 18.4877 22.863 18.2839 21.6123 17.9182C21.6043 17.9684 21.5997 18.019 21.5985 18.0698Z" fill="#FF510B"/>
<path d="M31.5501 11.3987C31.143 11.0234 30.6186 10.8005 30.0659 10.7679C29.5132 10.7352 28.9662 10.8948 28.5177 11.2195C27.7605 11.705 27.1205 12.3524 26.6438 13.1151C26.1671 13.8778 25.8656 14.7368 25.7611 15.6302C25.6563 16.2996 25.8165 16.9835 26.2076 17.5368C26.5988 18.09 27.1901 18.4691 27.8561 18.5936C28.8327 18.8267 29.8608 18.6965 30.7485 18.2273C31.6362 17.7581 32.3228 16.982 32.6803 16.0437C33.0674 15.26 33.1663 14.365 32.9596 13.5157C32.753 12.6664 32.2539 11.9169 31.5501 11.3987ZM32.0187 14.9548C31.9843 15.4533 31.8057 15.9311 31.5048 16.33C31.2038 16.7289 30.7933 17.0316 30.3233 17.2015C30.0201 17.3118 29.7307 17.298 29.6066 16.9258C29.4826 16.5537 31.0952 14.2932 31.6741 14.3208C31.9773 14.3483 32.06 14.6516 32.0187 14.9548Z" fill="#FF510B"/>
<path d="M24.6722 17.0361C24.6235 16.7259 24.5959 16.4127 24.5895 16.0988C24.6029 14.716 25.0321 13.3692 25.8212 12.2336C26.6102 11.0979 27.7227 10.2259 29.0139 9.73091C29.04 9.72327 29.0637 9.70934 29.0831 9.69035C29.1025 9.67135 29.1169 9.64788 29.1251 9.62201C29.1332 9.59613 29.1349 9.56864 29.13 9.54196C29.125 9.51528 29.1136 9.49023 29.0966 9.46902C28.4764 8.64203 25.8575 5.56835 22.205 5.83023C17.9459 6.13346 17.3808 10.3512 17.684 11.7846C17.9873 13.2181 19.1589 16.8431 24.5757 17.1739C24.6997 17.2015 24.6722 17.0361 24.6722 17.0361ZM22.8803 11.0955C22.7447 11.285 22.5395 11.4131 22.3096 11.4519C22.0798 11.4906 21.8439 11.4368 21.6536 11.3022L19.9169 9.92387C19.7939 9.87195 19.6843 9.79279 19.5964 9.69235C19.5084 9.59192 19.4444 9.47282 19.4091 9.34405C19.3739 9.21527 19.3683 9.08018 19.3929 8.94895C19.4175 8.81772 19.4715 8.69377 19.5509 8.58645C19.6303 8.47913 19.733 8.39124 19.8514 8.32939C19.9697 8.26755 20.1005 8.23337 20.234 8.22943C20.3674 8.22549 20.5 8.2519 20.6218 8.30665C20.7435 8.36141 20.8513 8.44309 20.9369 8.54554L22.6874 9.92387C22.8596 10.0601 22.9748 10.2557 23.0105 10.4723C23.0462 10.689 22.9998 10.9112 22.8803 11.0955Z" fill="#FF510B"/>
</g>
<defs>
<clipPath id="clip0_12_205">
<rect width="33.08" height="33.08" fill="white"/>
</clipPath>
</defs>
</svg>
