<svg width="32" height="32" viewBox="0 0 32 32" fill="none" xmlns="http://www.w3.org/2000/svg">
<g clip-path="url(#clip0_12_255)">
<path d="M25.56 0H6.44C4.73201 0 3.09397 0.678498 1.88623 1.88623C0.678498 3.09397 0 4.73201 0 6.44L0 25.56C0 27.268 0.678498 28.906 1.88623 30.1138C3.09397 31.3215 4.73201 32 6.44 32H25.56C27.268 32 28.906 31.3215 30.1138 30.1138C31.3215 28.906 32 27.268 32 25.56V6.44C32 4.73201 31.3215 3.09397 30.1138 1.88623C28.906 0.678498 27.268 0 25.56 0V0ZM8.94667 25.5467C8.73616 25.8453 8.42178 26.0546 8.06506 26.1336C7.70835 26.2126 7.33499 26.1556 7.01807 25.9738C6.70116 25.792 6.46352 25.4985 6.35166 25.1506C6.23981 24.8028 6.2618 24.4258 6.41333 24.0933L7.44 22.32C7.94619 22.1311 8.49932 22.1081 9.01944 22.2543C9.53956 22.4006 9.9997 22.7084 10.3333 23.1333L8.94667 25.5467ZM19.0667 21.6267H5.81333C5.45019 21.5919 5.11303 21.4231 4.86766 21.1531C4.6223 20.8832 4.48635 20.5315 4.48635 20.1667C4.48635 19.8019 4.6223 19.4502 4.86766 19.1802C5.11303 18.9102 5.45019 18.7414 5.81333 18.7067H9.52L14.2667 10.48L12.7867 7.90667C12.6898 7.7409 12.6271 7.55745 12.6022 7.36709C12.5773 7.17673 12.5907 6.98331 12.6416 6.79821C12.6926 6.61311 12.78 6.44006 12.8988 6.28924C13.0176 6.13842 13.1653 6.01288 13.3333 5.92C13.6703 5.72985 14.0683 5.6792 14.4421 5.77888C14.8159 5.87857 15.1358 6.12067 15.3333 6.45333L15.96 7.56L16.6 6.45333C16.7975 6.12067 17.1174 5.87857 17.4913 5.77888C17.8651 5.6792 18.2631 5.72985 18.6 5.92C18.7656 6.01531 18.9107 6.14234 19.0272 6.29381C19.1436 6.44528 19.2291 6.61823 19.2786 6.80275C19.3281 6.98727 19.3408 7.17975 19.3159 7.36917C19.2909 7.55859 19.2289 7.74124 19.1333 7.90667L12.8933 18.6667H17.4667C17.9655 18.7097 18.4303 18.9371 18.7705 19.3045C19.1108 19.6718 19.3019 20.1527 19.3067 20.6533C19.3112 20.993 19.2286 21.3281 19.0667 21.6267ZM26.1733 21.6267H24.0667L25.4933 24.0933C25.5889 24.2588 25.6509 24.4414 25.6759 24.6308C25.7008 24.8203 25.6881 25.0127 25.6386 25.1973C25.5891 25.3818 25.5036 25.5547 25.3872 25.7062C25.2707 25.8577 25.1256 25.9847 24.96 26.08C24.7061 26.2287 24.4137 26.2983 24.12 26.28C23.8798 26.2615 23.6476 26.1851 23.4433 26.0574C23.239 25.9297 23.0686 25.7545 22.9467 25.5467L17.3333 15.8C17.0949 15.2768 16.9722 14.7083 16.9733 14.1333C16.9744 13.0712 17.3741 12.0482 18.0933 11.2667L22.3867 18.6667H26.1733C26.3768 18.6472 26.5821 18.6705 26.776 18.735C26.9699 18.7995 27.1482 18.9038 27.2995 19.0413C27.4507 19.1788 27.5716 19.3463 27.6543 19.5332C27.737 19.7202 27.7797 19.9223 27.7797 20.1267C27.7797 20.3311 27.737 20.5332 27.6543 20.7201C27.5716 20.907 27.4507 21.0746 27.2995 21.212C27.1482 21.3495 26.9699 21.4538 26.776 21.5183C26.5821 21.5829 26.3768 21.6061 26.1733 21.5867V21.6267Z" fill="#FF510B"/>
</g>
<defs>
<clipPath id="clip0_12_255">
<rect width="32" height="32" fill="white"/>
</clipPath>
</defs>
</svg>
