<svg width="34" height="24" viewBox="0 0 34 24" fill="none" xmlns="http://www.w3.org/2000/svg">
<path d="M30.8746 3.45961C30.7545 2.52761 30.3077 1.66843 29.6137 1.03494C28.9196 0.401441 28.0233 0.0347129 27.0842 0H5.99574C5.05838 0.040122 4.165 0.408698 3.47202 1.04119C2.77905 1.67369 2.33065 2.5298 2.20533 3.45961L0 12.7358V20.0685C0.00364611 20.9873 0.371201 21.8673 1.02219 22.5157C1.67319 23.1641 2.55458 23.5281 3.4734 23.5281H29.6617C30.5709 23.5137 31.4382 23.1433 32.0774 22.4964C32.7165 21.8496 33.0765 20.9778 33.08 20.0685V12.7358L30.8746 3.45961ZM11.9777 6.21628C11.9929 6.13434 12.0208 6.05528 12.0604 5.98196C12.125 5.80901 12.2465 5.66318 12.405 5.56846C12.5296 5.4945 12.6642 5.4388 12.8047 5.40306C12.9759 5.35179 13.1511 5.31491 13.3285 5.29279C13.3349 5.31998 13.3349 5.3483 13.3285 5.37549C13.3344 5.48075 13.2999 5.58429 13.232 5.66494C13.0673 5.88213 12.8342 6.0375 12.5704 6.10601C12.4607 6.12165 12.3493 6.12165 12.2396 6.10601H11.9777V6.21628ZM14.7344 8.17351C14.6102 8.3661 14.4567 8.53816 14.2795 8.68349C14.156 8.78483 14.022 8.87263 13.8798 8.94537C13.7684 9.01005 13.6475 9.05658 13.5214 9.08321C13.3804 9.11106 13.2352 9.11106 13.0942 9.08321C12.9288 9.08321 12.7771 9.08321 12.6117 9.00051H12.212C12.0519 8.97957 11.8897 8.97957 11.7296 9.00051H11.385L11.0267 8.97294C10.8764 9.00129 10.7221 9.00129 10.5718 8.97294C10.4559 8.94855 10.3444 8.90672 10.241 8.84889C10.081 8.76254 9.93278 8.656 9.79994 8.53187C9.60489 8.36643 9.4374 8.17103 9.30374 7.95297C9.25399 7.83896 9.22147 7.71819 9.20726 7.59461C9.18716 7.48063 9.18716 7.36401 9.20726 7.25002C9.2107 7.08232 9.26343 6.91934 9.35887 6.78139C9.47841 6.61912 9.63415 6.48698 9.81372 6.39546C10.0204 6.29305 10.2452 6.23218 10.4753 6.21628H10.875C11.0971 6.23023 11.318 6.25785 11.5366 6.29898H11.9226H12.2258C12.405 6.31276 12.5428 6.21628 12.7082 6.21628H13.1217H13.5077C13.7327 6.23672 13.9547 6.28297 14.1692 6.35411C14.2959 6.40416 14.4161 6.46893 14.5276 6.54708H14.5965H14.4587C14.3145 6.61642 14.1801 6.70447 14.059 6.80896C13.975 6.88816 13.9133 6.98795 13.8798 7.09841C13.8613 7.22037 13.8804 7.34507 13.9345 7.45589C13.9887 7.56671 14.0754 7.65838 14.183 7.71866C14.2923 7.80036 14.4131 7.86539 14.5414 7.91162H14.7895L14.7344 8.17351ZM18.635 9.05564H17.9734C16.7881 9.05564 16.4573 8.82132 16.4573 8.28377V6.72626H15.713V6.28519H16.54V5.60981H17.5462V6.28519H18.6488V6.72626H17.5462V8.10459C17.5462 8.39404 17.7529 8.47674 18.3042 8.47674H18.704L18.635 9.05564ZM22.136 9.05564H21.0196L19.3656 6.21628H20.4958L21.5847 8.36647L22.8252 6.21628H23.9141L22.136 9.05564Z" fill="#303030"/>
</svg>
