<svg width="34" height="34" viewBox="0 0 34 34" fill="none" xmlns="http://www.w3.org/2000/svg">
<g clip-path="url(#clip0_12_231)">
<path d="M24.9064 10.9164V9.64832C24.9185 9.12268 24.8105 8.60122 24.5908 8.12355C24.371 7.64588 24.0453 7.22458 23.6384 6.89166C23.0428 6.38038 22.5655 5.7458 22.2395 5.03183C21.9134 4.31785 21.7464 3.54155 21.7501 2.75666V1.59886C21.7464 1.17356 21.5749 0.766906 21.2729 0.46745C20.9709 0.167995 20.5627 -1.55344e-05 20.1374 1.0773e-09L12.1431 1.0773e-09C11.7191 1.0773e-09 11.3124 0.168451 11.0125 0.468297C10.7127 0.768142 10.5442 1.17482 10.5442 1.59886V2.75666C10.548 3.54293 10.3797 4.32049 10.0511 5.03481C9.72254 5.74913 9.24163 6.3829 8.64214 6.89166C8.23519 7.22458 7.90948 7.64588 7.68976 8.12355C7.47003 8.60122 7.36207 9.12268 7.37407 9.64832V23.5695C7.38257 24.0719 7.50041 24.5664 7.7194 25.0187C7.93839 25.4709 8.25327 25.8701 8.64214 26.1883C9.24163 26.6971 9.72254 27.3308 10.0511 28.0451C10.3797 28.7595 10.548 29.537 10.5442 30.3233V31.4535C10.5406 31.6658 10.5792 31.8767 10.6579 32.0739C10.7366 32.271 10.8538 32.4506 11.0027 32.602C11.1515 32.7534 11.329 32.8736 11.5248 32.9557C11.7206 33.0377 11.9308 33.08 12.1431 33.08H20.1374C20.5627 33.08 20.9709 32.912 21.2729 32.6125C21.5749 32.3131 21.7464 31.9064 21.7501 31.4811V30.3233C21.7464 29.5384 21.9134 28.7621 22.2395 28.0481C22.5655 27.3342 23.0428 26.6996 23.6384 26.1883C24.0344 25.8641 24.3535 25.4561 24.5728 24.9938C24.792 24.5314 24.906 24.0261 24.9064 23.5143V14.8584H25.7059V10.9164H24.9064ZM24.2035 23.6246C24.2071 23.9588 24.1447 24.2904 24.0197 24.6004C23.8948 24.9104 23.7098 25.1926 23.4754 25.4309C23.2409 25.6691 22.9618 25.8587 22.6539 25.9887C22.3459 26.1187 22.0154 26.1865 21.6812 26.1883H10.6545C9.98299 26.1847 9.34002 25.9163 8.86519 25.4415C8.39035 24.9667 8.12199 24.3237 8.11837 23.6522V9.45536C8.11443 8.79078 8.3701 8.15093 8.83094 7.67208C9.29177 7.19322 9.92135 6.9132 10.5856 6.89166H21.6812C22.3514 6.8953 22.9929 7.16411 23.4656 7.63933C23.9382 8.11455 24.2035 8.75755 24.2035 9.42779V23.6246Z" fill="#303030"/>
</g>
<defs>
<clipPath id="clip0_12_231">
<rect width="33.08" height="33.08" fill="white"/>
</clipPath>
</defs>
</svg>
