<svg width="100" height="24" viewBox="0 0 100 24" fill="none" xmlns="http://www.w3.org/2000/svg">
<path d="M12.7378 4.39042C13.1773 3.8081 13.489 3.015 13.489 2.2119C13.4897 2.10728 13.4806 2.00343 13.4616 1.90112C12.7469 1.93112 11.8855 2.42268 11.373 3.08577C10.97 3.58732 10.5944 4.39042 10.5944 5.19429C10.5951 5.28891 10.6042 5.38276 10.6218 5.47507C10.685 5.48815 10.7496 5.49507 10.8141 5.49507C11.4551 5.49507 12.2611 5.02352 12.7378 4.39042ZM13.2412 5.66584C12.1691 5.66584 11.2986 6.37817 10.7397 6.37817C10.1444 6.37817 9.36578 5.70584 8.43063 5.70584C6.66283 5.70584 4.86694 7.31204 4.86694 10.3337C4.86694 12.2206 5.52689 14.2084 6.35111 15.4938C7.05669 16.5777 7.67029 17.4716 8.55911 17.4716C9.4388 17.4716 9.82353 16.8292 10.9138 16.8292C12.0224 16.8292 12.2695 17.4516 13.2412 17.4516C14.203 17.4516 14.8447 16.4877 15.4492 15.5338C16.1274 14.4399 16.411 13.3753 16.4201 13.3253C16.3654 13.3053 14.5239 12.4822 14.5239 10.1737C14.5239 8.17591 15.9715 7.28281 16.0537 7.21281C15.101 5.70584 13.6442 5.66584 13.2412 5.66584ZM22.3723 17.3608H24.635L29.3445 2.87576H27.1365L23.5265 14.8615H23.4808L19.8715 2.87576H17.6635L22.3723 17.3608Z" fill="black"/>
<path d="M31.4057 5.17337C32.0558 5.17337 32.5599 4.61105 32.5599 3.92872C32.5599 3.2364 32.0558 2.67407 31.4057 2.67407C30.764 2.67407 30.2515 3.2364 30.2515 3.92872C30.2515 4.61182 30.7647 5.17337 31.4057 5.17337ZM30.4164 17.3599H32.3956V6.79957H30.4164V17.3599Z" fill="black"/>
<path d="M37.6849 17.5715C39.9568 17.5715 41.6059 16.246 41.6059 14.3191V14.3091C41.6059 12.7929 40.8547 11.9398 38.8847 11.4382L37.3184 11.0467C36.2829 10.7759 35.889 10.3343 35.889 9.68123V9.67123C35.889 8.82813 36.5574 8.27581 37.621 8.27581C38.7387 8.27581 39.3986 8.91813 39.5173 9.84201L39.5264 9.91201H41.3862L41.3771 9.79201C41.276 7.99503 39.902 6.59961 37.621 6.59961C35.4039 6.59961 33.9015 7.89426 33.9015 9.78201V9.79201C33.9015 11.3282 34.8085 12.2913 36.6409 12.7529L38.2171 13.1444C39.2526 13.4152 39.6008 13.8067 39.6008 14.4898V14.4998C39.6008 15.3529 38.8861 15.8953 37.6954 15.8953C36.4766 15.8953 35.8174 15.3229 35.6342 14.3491L35.6159 14.2491H33.655L33.6642 14.3398C33.8642 16.266 35.2754 17.5715 37.6849 17.5715Z" fill="black"/>
<path d="M44.0734 5.17337C44.7235 5.17337 45.2276 4.61105 45.2276 3.92872C45.2276 3.2364 44.7235 2.67407 44.0734 2.67407C43.4317 2.67407 42.9192 3.2364 42.9192 3.92872C42.9185 4.61182 43.4317 5.17337 44.0734 5.17337ZM43.0835 17.3599H45.0626V6.79957H43.0835V17.3599Z" fill="black"/>
<path d="M51.0229 17.5713C53.7806 17.5713 55.5948 15.4835 55.5948 12.0804V12.0604C55.5948 8.67796 53.7624 6.59944 51.0138 6.59944C48.2743 6.59944 46.451 8.68719 46.451 12.0604V12.0804C46.4518 15.4728 48.2568 17.5713 51.0229 17.5713ZM51.032 15.7543C49.484 15.7543 48.4758 14.4189 48.4758 12.0804V12.0604C48.4758 9.75184 49.4924 8.41641 51.0138 8.41641C52.5618 8.41641 53.57 9.75184 53.57 12.0604V12.0804C53.57 14.4089 52.5808 15.7543 51.032 15.7543ZM56.7672 17.3605H58.7463V11.2073C58.7463 9.56106 59.6443 8.45718 61.0365 8.45718C62.4104 8.45718 63.0886 9.35029 63.0886 10.9365V17.3613H65.0769V10.5249C65.0769 8.09563 63.8581 6.60021 61.742 6.60021C60.2853 6.60021 59.296 7.3233 58.792 8.39718H58.7463V6.80098H56.7672V17.3605ZM69.8418 17.3605H71.8939V12.4111H74.7619C77.3546 12.4111 79.1505 10.4734 79.1505 7.64331V7.62331C79.1505 4.78246 77.3546 2.87549 74.7619 2.87549H69.8418V17.3605ZM74.2486 4.77246C76.0354 4.77246 77.0611 5.82634 77.0611 7.63331V7.65331C77.0611 9.47029 76.0347 10.5242 74.2486 10.5242H71.8939V4.7717L74.2486 4.77246ZM80.3468 17.3605H82.3259V11.0665C82.3259 9.49029 83.1136 8.57719 84.3872 8.57719C84.7719 8.57719 85.1201 8.62719 85.276 8.69719V6.67944C85.1201 6.64944 84.873 6.59944 84.5887 6.59944C83.4892 6.59944 82.6833 7.37254 82.3716 8.60719H82.3259V6.80021H80.3468V17.3605ZM90.1603 17.5713C92.918 17.5713 94.7321 15.4835 94.7321 12.0804V12.0604C94.7321 8.67796 92.8997 6.59944 90.1511 6.59944C87.4117 6.59944 85.5884 8.68719 85.5884 12.0604V12.0804C85.5884 15.4728 87.3934 17.5713 90.1603 17.5713ZM90.1687 15.7543C88.6206 15.7543 87.6125 14.4189 87.6125 12.0804V12.0604C87.6125 9.75184 88.6291 8.41641 90.1504 8.41641C91.6985 8.41641 92.7067 9.75184 92.7067 12.0604V12.0804C92.7067 14.4089 91.7175 15.7543 90.1687 15.7543Z" fill="black"/>
</svg>
