<svg width="14" height="17" viewBox="0 0 14 17" fill="none" xmlns="http://www.w3.org/2000/svg">
<path d="M10.4011 3.95366C8.98559 3.84955 7.78474 4.7397 7.11471 4.7397C6.43496 4.7397 5.38694 3.9761 4.27566 3.99698C2.81648 4.01823 1.47164 4.84111 0.719231 6.13998C-0.796325 8.75532 0.332358 12.6307 1.80857 14.753C2.53069 15.79 3.39193 16.9586 4.52316 16.916C5.61201 16.8734 6.02397 16.2159 7.34015 16.2159C8.65552 16.2159 9.02663 16.916 10.178 16.8951C11.35 16.8734 12.0926 15.8366 12.8094 14.7938C13.6389 13.5902 13.9798 12.4247 14 12.3631C13.9741 12.3534 11.7154 11.4918 11.6929 8.90474C11.6725 6.7418 13.4687 5.70212 13.5503 5.65207C12.5307 4.15915 10.9559 3.99453 10.4011 3.95366Z" fill="white"/>
<path d="M9.52757 2.72886C10.1287 2.00653 10.5332 1.00057 10.4218 0C9.5566 0.0341149 8.51015 0.572988 7.88955 1.29486C7.33381 1.93432 6.84573 2.95849 6.97825 3.93864C7.94264 4.01272 8.92691 3.45163 9.52757 2.72886Z" fill="white"/>
</svg>
