<svg width="18" height="15" viewBox="0 0 18 15" fill="none" xmlns="http://www.w3.org/2000/svg">
<path opacity="0.4" d="M16.9393 8.41079L8.34348 8.41079C7.94582 8.41079 7.62308 7.97608 7.62308 7.44047C7.62308 6.90486 7.94582 6.47015 8.34348 6.47015L16.9393 6.47015C17.3369 6.47015 17.6597 6.90486 17.6597 7.44047C17.6597 7.97608 17.3369 8.41079 16.9393 8.41079Z" fill="#FF510C"/>
<mask id="mask0_12_477" style="mask-type:luminance" maskUnits="userSpaceOnUse" x="-1" y="0" width="11" height="15">
<path d="M9.06362 -6.10352e-05L9.06362 14.8804L-6.77109e-05 14.8804L-6.77109e-05 -6.10352e-05L9.06362 -6.10352e-05Z" fill="#FF510C"/>
</mask>
<g mask="url(#mask0_12_477)">
<path d="M7.54718 13.6562C7.44189 13.6562 7.3381 13.6145 7.24635 13.5333L1.27793 8.18944C1.11398 8.04198 1.01395 7.78659 1.01395 7.5109C1.01395 7.23522 1.11398 6.97983 1.27793 6.83237L7.24635 1.48848C7.42008 1.33354 7.63968 1.32392 7.81942 1.46604C7.99992 1.60709 8.11123 1.8753 8.11123 2.16702L8.11123 12.8548C8.11123 13.1465 7.99992 13.4147 7.81942 13.5558C7.73444 13.6231 7.64043 13.6562 7.54718 13.6562Z" fill="#FF510C"/>
</g>
</svg>
