<svg width="20" height="20" viewBox="0 0 20 20" fill="none" xmlns="http://www.w3.org/2000/svg">
<path d="M16.6667 10.2286C16.6667 10.545 16.4316 10.8065 16.1265 10.8479L16.0417 10.8536L5.05502 10.8531L9.02418 14.8061C9.26878 15.0496 9.26963 15.4453 9.02608 15.69C8.80467 15.9123 8.45749 15.9332 8.21243 15.7522L8.1422 15.6919L3.10053 10.6719C3.06829 10.6398 3.04028 10.605 3.01652 10.5683C3.0098 10.5573 3.00297 10.546 2.99649 10.5344C2.99053 10.5246 2.98515 10.5143 2.98007 10.5039C2.97301 10.4888 2.96612 10.4733 2.95986 10.4573C2.95477 10.4451 2.95053 10.4331 2.94665 10.4211C2.94205 10.4062 2.93757 10.3903 2.93373 10.3742C2.93087 10.3629 2.9286 10.3521 2.92662 10.3412C2.92384 10.325 2.92148 10.3083 2.91979 10.2913C2.91833 10.2784 2.91745 10.2656 2.91697 10.2527C2.91685 10.2449 2.91669 10.2368 2.91669 10.2286L2.917 10.2044C2.91748 10.1922 2.91832 10.1799 2.91951 10.1677L2.91669 10.2286C2.91669 10.1892 2.92034 10.1506 2.92733 10.1132C2.92895 10.1043 2.93088 10.0951 2.93302 10.0859C2.93746 10.0671 2.94259 10.049 2.94849 10.0312C2.95139 10.0224 2.95477 10.013 2.95838 10.0036C2.96569 9.98483 2.97362 9.9669 2.98236 9.94944C2.98641 9.94123 2.99096 9.93263 2.99572 9.92412C3.00353 9.91024 3.01157 9.89705 3.02008 9.88419C3.02608 9.87509 3.03273 9.86562 3.03967 9.8563L3.04508 9.84909C3.06192 9.82709 3.08019 9.80625 3.09974 9.78669L3.1005 9.78611L8.14216 4.76527C8.38674 4.5217 8.78247 4.52252 9.02604 4.7671C9.24747 4.98945 9.26692 5.33671 9.08487 5.58101L9.02421 5.65099L5.05669 9.60313L16.0417 9.60363C16.3869 9.60363 16.6667 9.88345 16.6667 10.2286Z" fill="#FF510C"/>
</svg>
