<svg width="25" height="26" viewBox="0 0 25 26" fill="none" xmlns="http://www.w3.org/2000/svg">
<path d="M13.6967 1.75C14.7011 1.75 15.1456 1.75088 15.5121 1.7837C19.5877 2.14859 22.8176 5.37853 23.1825 9.45406C23.2153 9.82063 23.2162 10.2651 23.2162 11.2695V12.4244C23.2162 12.9077 23.608 13.2994 24.0912 13.2994C24.5745 13.2994 24.9662 12.9077 24.9662 12.4244V11.2106C24.9662 10.2809 24.9662 9.75256 24.9255 9.298C24.4851 4.37926 20.5869 0.48106 15.6682 0.0406735C15.2136 -2.69723e-05 14.6853 -1.6937e-05 13.7555 7.26057e-07H12.5418C12.0585 7.26057e-07 11.6668 0.391754 11.6668 0.875002C11.6668 1.35825 12.0585 1.75 12.5418 1.75L13.6967 1.75Z" fill="#FF510C"/>
<path fill-rule="evenodd" clip-rule="evenodd" d="M6.8388 3.23785C5.61137 2.10999 3.72469 2.10999 2.49725 3.23785C2.44699 3.28404 2.39333 3.33771 2.32365 3.4074L1.27656 4.45449C0.222928 5.50812 -0.219378 7.02703 0.103862 8.48161C1.93783 16.7344 8.38312 23.1797 16.636 25.0137C18.0905 25.3369 19.6094 24.8946 20.6631 23.841L21.71 22.794C21.7798 22.7243 21.8335 22.6706 21.8797 22.6203C23.0076 21.3929 23.0076 19.5062 21.8797 18.2788C21.8335 18.2285 21.7798 18.1748 21.71 18.105L19.9959 16.3909C18.8058 15.2008 17.0085 14.8604 15.4656 15.5329C14.5823 15.918 13.5534 15.7231 12.8721 15.0418L10.0758 12.2455C9.39445 11.5642 9.19959 10.5352 9.58461 9.65193C10.2571 8.10905 9.91678 6.31177 8.72666 5.12165L7.01243 3.40743C6.94274 3.33772 6.88908 3.28404 6.8388 3.23785ZM3.68131 4.52645C4.23924 4.01379 5.09682 4.01379 5.65474 4.52645C5.674 4.54415 5.69925 4.56912 5.78799 4.65786L7.48922 6.35909C8.17056 7.04043 8.36542 8.06936 7.9804 8.95265C7.30786 10.4955 7.64824 12.2928 8.83835 13.4829L11.6346 16.2792C12.8247 17.4693 14.622 17.8097 16.1649 17.1372C17.0482 16.7521 18.0771 16.947 18.7585 17.6283L20.4597 19.3296C20.5484 19.4183 20.5734 19.4436 20.5911 19.4628C21.1038 20.0207 21.1038 20.8783 20.5911 21.4362C20.5734 21.4555 20.5484 21.4808 20.4597 21.5695L19.4256 22.6036C18.7951 23.2341 17.8861 23.4988 17.0156 23.3054C9.42603 21.6188 3.49876 15.6915 1.81219 8.10198C1.61874 7.23148 1.88344 6.32248 2.514 5.69193L3.54806 4.65786C3.63681 4.56912 3.66205 4.54415 3.68131 4.52645Z" fill="#FF510C"/>
<path d="M13.3666 4.12479C12.8834 4.12479 12.4916 4.51654 12.4916 4.99979C12.4916 5.48304 12.8834 5.87479 13.3666 5.87479H14.0266C14.0393 5.87479 14.0511 5.87479 14.062 5.87479C14.1387 5.8748 14.1743 5.87487 14.204 5.8753C16.8868 5.91372 19.0524 8.07928 19.0908 10.7621C19.0913 10.796 19.0913 10.8377 19.0913 10.9395V11.5995C19.0913 12.0827 19.483 12.4745 19.9663 12.4745C20.4495 12.4745 20.8413 12.0827 20.8413 11.5995V10.931C20.8413 10.9197 20.8413 10.9089 20.8413 10.8986C20.8413 10.8267 20.8412 10.7792 20.8406 10.7371C20.7886 7.10733 17.8587 4.17746 14.229 4.12548C14.1809 4.12479 14.1257 4.12479 14.035 4.12479H13.3666Z" fill="#FF510C"/>
</svg>
