<svg width="22" height="20" viewBox="0 0 22 20" fill="none" xmlns="http://www.w3.org/2000/svg">
<path d="M8.75 0.48043L0.466965 8.72606C-0.155636 9.34646 -0.155636 10.4443 0.466965 11.0669L8.75 19.3125C9.3968 19.9549 10.4418 19.9527 11.0842 19.3059C11.7266 18.6591 11.7266 17.6163 11.0798 16.9717L5.63039 11.5443L19.6114 11.5443C20.5244 11.5443 21.2614 10.8051 21.2614 9.89427C21.2614 8.98346 20.5244 8.24426 19.6114 8.24426L5.63039 8.24426L11.0798 2.81904C11.4032 2.49564 11.5638 2.07324 11.5638 1.64863C11.5638 1.22843 11.4032 0.806031 11.0842 0.48483C10.4418 -0.159773 9.3968 -0.161972 8.75 0.48043Z" fill="white"/>
</svg>
