<svg width="34" height="31" viewBox="0 0 34 31" fill="none" xmlns="http://www.w3.org/2000/svg">
<path d="M29.4525 3.95589C28.444 2.7147 27.1702 1.71514 25.7249 1.03061C24.2795 0.346075 22.6991 -0.00605248 21.0998 7.87125e-05H11.9753C10.376 -0.00605248 8.79565 0.346075 7.35026 1.03061C5.90488 1.71514 4.63115 2.7147 3.6226 3.95589C2.00329 5.98076 0.882689 8.35794 0.351222 10.8956C-0.180246 13.4333 -0.107692 16.0604 0.563028 18.5648C1.23375 21.0693 2.48385 23.381 4.21244 25.3134C5.94104 27.2458 8.09971 28.7448 10.5143 29.6893C11.6266 30.1162 12.8102 30.3267 14.0014 30.3096H19.0461C20.2373 30.3257 21.4207 30.1152 22.5333 29.6893C24.9478 28.7448 27.1065 27.2458 28.8351 25.3134C30.5637 23.381 31.8138 21.0693 32.4845 18.5648C33.1553 16.0604 33.2278 13.4333 32.6963 10.8956C32.1649 8.35794 31.0443 5.98076 29.425 3.95589H29.4525ZM16.5376 4.58992C12.0029 4.58992 8.33649 3.92832 8.33649 3.11511C8.33649 2.30189 12.0166 1.65408 16.5376 1.65408C21.0585 1.65408 24.8076 2.31568 24.8076 3.11511C24.8076 3.91454 21.0723 4.58992 16.5376 4.58992Z" fill="#303030"/>
<path d="M10.7485 3.1152C10.7485 3.3633 13.3398 3.55627 16.5513 3.55627C19.7628 3.55627 22.3541 3.3633 22.3541 3.1152C22.3541 2.8671 19.749 2.75684 16.5375 2.75684C13.326 2.75684 10.7485 2.88089 10.7485 3.1152Z" fill="#303030"/>
</svg>
