<svg width="18" height="18" viewBox="0 0 18 18" fill="none" xmlns="http://www.w3.org/2000/svg">
<path d="M8.9375 4.8125C8.12165 4.8125 7.32413 5.05443 6.64577 5.50769C5.96742 5.96095 5.43871 6.60519 5.1265 7.35893C4.81429 8.11268 4.7326 8.94208 4.89176 9.74225C5.05093 10.5424 5.44379 11.2774 6.02068 11.8543C6.59758 12.4312 7.33258 12.8241 8.13275 12.9832C8.93292 13.1424 9.76232 13.0607 10.5161 12.7485C11.2698 12.4363 11.9141 11.9076 12.3673 11.2292C12.8206 10.5509 13.0625 9.75335 13.0625 8.9375C13.0614 7.84383 12.6264 6.79528 11.8531 6.02194C11.0797 5.2486 10.0312 4.81364 8.9375 4.8125ZM8.9375 11.6875C8.3936 11.6875 7.86192 11.5262 7.40968 11.224C6.95745 10.9219 6.60497 10.4924 6.39683 9.98988C6.18869 9.48738 6.13423 8.93445 6.24034 8.401C6.34645 7.86755 6.60836 7.37755 6.99296 6.99296C7.37755 6.60836 7.86755 6.34645 8.401 6.24034C8.93445 6.13423 9.48738 6.18869 9.98988 6.39683C10.4924 6.60497 10.9219 6.95745 11.224 7.40968C11.5262 7.86192 11.6875 8.3936 11.6875 8.9375C11.6875 9.66685 11.3978 10.3663 10.882 10.882C10.3663 11.3978 9.66685 11.6875 8.9375 11.6875ZM13.0625 0H4.8125C3.53656 0.00136488 2.31328 0.508833 1.41106 1.41106C0.508833 2.31328 0.00136488 3.53656 0 4.8125V13.0625C0.00136488 14.3384 0.508833 15.5617 1.41106 16.4639C2.31328 17.3662 3.53656 17.8736 4.8125 17.875H13.0625C14.3384 17.8736 15.5617 17.3662 16.4639 16.4639C17.3662 15.5617 17.8736 14.3384 17.875 13.0625V4.8125C17.8736 3.53656 17.3662 2.31328 16.4639 1.41106C15.5617 0.508833 14.3384 0.00136488 13.0625 0ZM16.5 13.0625C16.5 13.9742 16.1378 14.8485 15.4932 15.4932C14.8485 16.1378 13.9742 16.5 13.0625 16.5H4.8125C3.90082 16.5 3.02648 16.1378 2.38182 15.4932C1.73716 14.8485 1.375 13.9742 1.375 13.0625V4.8125C1.375 3.90082 1.73716 3.02648 2.38182 2.38182C3.02648 1.73716 3.90082 1.375 4.8125 1.375H13.0625C13.9742 1.375 14.8485 1.73716 15.4932 2.38182C16.1378 3.02648 16.5 3.90082 16.5 4.8125V13.0625ZM14.4375 4.46875C14.4375 4.67271 14.377 4.87209 14.2637 5.04168C14.1504 5.21127 13.9893 5.34345 13.8009 5.4215C13.6125 5.49955 13.4051 5.51998 13.2051 5.48019C13.005 5.44039 12.8213 5.34218 12.677 5.19795C12.5328 5.05373 12.4346 4.86998 12.3948 4.66994C12.355 4.46989 12.3754 4.26254 12.4535 4.07411C12.5316 3.88567 12.6637 3.72461 12.8333 3.6113C13.0029 3.49798 13.2023 3.4375 13.4062 3.4375C13.6798 3.4375 13.9421 3.54615 14.1355 3.73955C14.3288 3.93294 14.4375 4.19525 14.4375 4.46875Z" fill="black"/>
</svg>
