<svg width="24" height="34" viewBox="0 0 24 34" fill="none" xmlns="http://www.w3.org/2000/svg">
<path d="M20.9093 0H2.13641C1.5698 0 1.0264 0.225086 0.625741 0.625741C0.225086 1.0264 0 1.5698 0 2.13641V30.9435C0 31.2241 0.0552599 31.5019 0.162625 31.7611C0.26999 32.0203 0.427357 32.2558 0.625741 32.4542C0.824126 32.6526 1.05964 32.81 1.31884 32.9173C1.57805 33.0247 1.85586 33.08 2.13641 33.08H20.9093C21.1898 33.08 21.4677 33.0247 21.7269 32.9173C21.9861 32.81 22.2216 32.6526 22.42 32.4542C22.6183 32.2558 22.7757 32.0203 22.8831 31.7611C22.9904 31.5019 23.0457 31.2241 23.0457 30.9435V2.13641C23.0457 1.5698 22.8206 1.0264 22.42 0.625741C22.0193 0.225086 21.4759 0 20.9093 0V0ZM11.5229 14.8308C11.5085 14.7441 11.5085 14.6557 11.5229 14.569C11.5632 14.4492 11.6238 14.3374 11.702 14.2382C11.7705 14.1668 11.8495 14.1063 11.9364 14.059C12.0328 14.0105 12.1345 13.9735 12.2396 13.9487C12.246 13.9759 12.246 14.0042 12.2396 14.0314C12.2672 14.1306 12.2672 14.2355 12.2396 14.3346C12.1772 14.5312 12.0448 14.698 11.8674 14.8033C11.7996 14.8208 11.7285 14.8208 11.6607 14.8033H11.5366L11.5229 14.8308ZM5.26523 4.13499C5.2616 4.44698 5.13511 4.74495 4.9132 4.96428C4.6913 5.18361 4.39187 5.3066 4.07986 5.30658H2.52235C2.21162 5.30658 1.91363 5.18314 1.69391 4.96343C1.4742 4.74371 1.35076 4.44572 1.35076 4.13499V2.35695C1.35074 2.04494 1.47374 1.74551 1.69306 1.5236C1.91239 1.3017 2.21036 1.17521 2.52235 1.17158H4.07986C4.39313 1.17516 4.69255 1.3012 4.91408 1.52273C5.13561 1.74425 5.26165 2.04368 5.26523 2.35695V4.13499ZM10.7786 31.7016C10.7186 31.7016 10.66 31.6838 10.6101 31.6505C10.5602 31.6172 10.5214 31.5698 10.4984 31.5144C10.4755 31.459 10.4694 31.3981 10.4811 31.3392C10.4928 31.2804 10.5217 31.2264 10.5641 31.184C10.6065 31.1416 10.6606 31.1127 10.7194 31.101C10.7782 31.0893 10.8392 31.0953 10.8946 31.1182C10.95 31.1412 10.9974 31.1801 11.0307 31.2299C11.064 31.2798 11.0818 31.3384 11.0818 31.3984C11.0598 31.4663 11.0145 31.5242 10.954 31.562C10.8935 31.5998 10.8216 31.6151 10.751 31.6051L10.7786 31.7016ZM11.5504 31.7016C11.4904 31.7016 11.4318 31.6838 11.382 31.6505C11.3321 31.6172 11.2932 31.5698 11.2703 31.5144C11.2473 31.459 11.2413 31.3981 11.253 31.3392C11.2647 31.2804 11.2936 31.2264 11.336 31.184C11.3784 31.1416 11.4324 31.1127 11.4913 31.101C11.5501 31.0893 11.6111 31.0953 11.6665 31.1182C11.7219 31.1412 11.7692 31.1801 11.8025 31.2299C11.8359 31.2798 11.8537 31.3384 11.8537 31.3984C11.8316 31.4663 11.7864 31.5242 11.7259 31.562C11.6654 31.5998 11.5935 31.6151 11.5229 31.6051L11.5504 31.7016ZM12.3223 31.7016C12.2623 31.7016 12.2037 31.6838 12.1538 31.6505C12.1039 31.6172 12.0651 31.5698 12.0421 31.5144C12.0192 31.459 12.0132 31.3981 12.0249 31.3392C12.0366 31.2804 12.0655 31.2264 12.1079 31.184C12.1503 31.1416 12.2043 31.1127 12.2631 31.101C12.3219 31.0893 12.3829 31.0953 12.4383 31.1182C12.4937 31.1412 12.5411 31.1801 12.5744 31.2299C12.6077 31.2798 12.6255 31.3384 12.6255 31.3984C12.6035 31.4663 12.5583 31.5242 12.4978 31.562C12.4373 31.5998 12.3654 31.6151 12.2947 31.6051L12.3223 31.7016ZM13.1631 16.9948C13.1011 17.181 13.0129 17.3573 12.9012 17.5186C12.8386 17.6267 12.7596 17.7244 12.6669 17.808C12.6066 17.8694 12.5367 17.9206 12.4601 17.9597C12.3788 17.9807 12.2934 17.9807 12.212 17.9597C12.1168 17.9449 12.024 17.9171 11.9364 17.877H11.702C11.6114 17.8558 11.517 17.8558 11.4264 17.877H11.2196H11.0267C10.9415 17.9044 10.8499 17.9044 10.7648 17.877C10.6928 17.8489 10.6272 17.8067 10.5718 17.7529C10.4772 17.6521 10.394 17.5411 10.3237 17.4221C10.1998 17.2293 10.1024 17.0207 10.0343 16.8019C9.99565 16.6796 9.96345 16.5554 9.93777 16.4297C9.93061 16.3104 9.93061 16.1907 9.93777 16.0713C9.93631 15.9011 9.96912 15.7324 10.0343 15.5751C10.0866 15.4221 10.1767 15.2846 10.2961 15.1754C10.4041 15.0633 10.5434 14.9864 10.6959 14.9549H10.9164C11.0477 14.9678 11.1772 14.9956 11.3023 15.0376H11.5366C11.591 15.051 11.6477 15.051 11.702 15.0376L11.9915 14.9549H12.2258H12.4601C12.5931 14.9715 12.7205 15.0187 12.8323 15.0927C12.912 15.1496 12.9859 15.2142 13.0528 15.2857L12.9701 15.3684C12.886 15.4462 12.8119 15.5342 12.7496 15.6303C12.6925 15.7278 12.6551 15.8355 12.6393 15.9473C12.6238 16.0618 12.6317 16.1782 12.6625 16.2896C12.6933 16.4009 12.7464 16.5049 12.8185 16.5951C12.8731 16.677 12.9433 16.7473 13.0252 16.8019L13.1631 16.8708V16.9948Z" fill="#303030"/>
<path d="M2.45343 3.04601C2.84927 3.04601 3.17016 2.72512 3.17016 2.32928C3.17016 1.93344 2.84927 1.61255 2.45343 1.61255C2.05759 1.61255 1.73669 1.93344 1.73669 2.32928C1.73669 2.72512 2.05759 3.04601 2.45343 3.04601Z" fill="#303030"/>
<path d="M2.45343 4.83801C2.84927 4.83801 3.17016 4.51711 3.17016 4.12127C3.17016 3.72543 2.84927 3.40454 2.45343 3.40454C2.05759 3.40454 1.73669 3.72543 1.73669 4.12127C1.73669 4.51711 2.05759 4.83801 2.45343 4.83801Z" fill="#303030"/>
<path d="M4.12124 2.24662C4.198 2.24662 4.27163 2.21613 4.32591 2.16185C4.38019 2.10756 4.41069 2.03394 4.41069 1.95717C4.41069 1.88041 4.38019 1.80678 4.32591 1.7525C4.27163 1.69822 4.198 1.66772 4.12124 1.66772C4.04447 1.66772 3.97085 1.69822 3.91657 1.7525C3.86228 1.80678 3.83179 1.88041 3.83179 1.95717C3.83179 2.03394 3.86228 2.10756 3.91657 2.16185C3.97085 2.21613 4.04447 2.24662 4.12124 2.24662Z" fill="#303030"/>
<path d="M4.14877 4.25903C4.12945 4.25894 4.11033 4.2629 4.09264 4.27068C4.07495 4.27845 4.05909 4.28985 4.04609 4.30415C4.0331 4.31845 4.02325 4.33532 4.01719 4.35366C4.01114 4.37201 4.00901 4.39143 4.01094 4.41065C4.00872 4.42929 4.01076 4.44818 4.01691 4.46591C4.02305 4.48364 4.03313 4.49975 4.0464 4.51302C4.05967 4.52629 4.07578 4.53637 4.09351 4.54252C4.11124 4.54866 4.13014 4.5507 4.14877 4.54848C4.168 4.55042 4.18741 4.54829 4.20576 4.54223C4.22411 4.53617 4.24098 4.52633 4.25527 4.51333C4.26957 4.50033 4.28097 4.48448 4.28875 4.46679C4.29652 4.4491 4.30049 4.42997 4.30039 4.41065C4.30039 4.39074 4.29647 4.37103 4.28885 4.35263C4.28123 4.33424 4.27006 4.31752 4.25598 4.30344C4.2419 4.28936 4.22519 4.2782 4.20679 4.27058C4.1884 4.26296 4.16868 4.25903 4.14877 4.25903Z" fill="#303030"/>
<path d="M4.14876 2.59131C3.98792 2.59131 3.83366 2.6552 3.71993 2.76894C3.60619 2.88267 3.5423 3.03693 3.5423 3.19777C3.5423 3.35862 3.60619 3.51288 3.71993 3.62661C3.83366 3.74035 3.98792 3.80424 4.14876 3.80424C4.30961 3.80424 4.46387 3.74035 4.5776 3.62661C4.69133 3.51288 4.75523 3.35862 4.75523 3.19777C4.75523 3.03693 4.69133 2.88267 4.5776 2.76894C4.46387 2.6552 4.30961 2.59131 4.14876 2.59131Z" fill="#303030"/>
</svg>
