<svg width="17" height="34" viewBox="0 0 17 34" fill="none" xmlns="http://www.w3.org/2000/svg">
<path d="M2.94962 4.54856C3.25823 4.55129 3.56071 4.46227 3.81865 4.2928C4.07659 4.12333 4.27836 3.88104 4.39836 3.5967C4.51836 3.31235 4.55118 2.99876 4.49265 2.69573C4.43412 2.3927 4.28688 2.11389 4.06961 1.89469C3.85235 1.67548 3.57486 1.52577 3.27236 1.46455C2.96986 1.40332 2.65599 1.43335 2.37059 1.55082C2.08519 1.66829 1.84112 1.8679 1.66936 2.12432C1.4976 2.38075 1.4059 2.68242 1.40588 2.99105C1.40587 3.40175 1.56807 3.79584 1.85719 4.08753C2.1463 4.37923 2.53893 4.54493 2.94962 4.54856Z" fill="#303030"/>
<path d="M3.01857 5.51325C2.70994 5.51326 2.40827 5.60496 2.15185 5.77672C1.89543 5.94848 1.69582 6.19255 1.57835 6.47795C1.46088 6.76335 1.43085 7.07722 1.49207 7.37972C1.5533 7.68222 1.70301 7.95971 1.92221 8.17697C2.14142 8.39424 2.42022 8.54148 2.72326 8.60001C3.02629 8.65854 3.33987 8.62572 3.62422 8.50572C3.90857 8.38572 4.15085 8.18395 4.32033 7.92601C4.4898 7.66807 4.57882 7.3656 4.57609 7.05698C4.5761 6.85309 4.53571 6.65121 4.45727 6.46301C4.37883 6.27482 4.26389 6.10402 4.11908 5.96049C3.97427 5.81696 3.80246 5.70354 3.61357 5.62677C3.42468 5.55001 3.22246 5.51142 3.01857 5.51325Z" fill="#303030"/>
<path d="M6.72629 2.75677C6.85986 2.75677 6.99044 2.71716 7.10151 2.64295C7.21257 2.56874 7.29914 2.46326 7.35026 2.33985C7.40138 2.21644 7.41475 2.08064 7.38869 1.94963C7.36263 1.81862 7.29831 1.69828 7.20385 1.60382C7.1094 1.50937 6.98906 1.44504 6.85805 1.41898C6.72703 1.39292 6.59124 1.4063 6.46783 1.45742C6.34442 1.50853 6.23894 1.5951 6.16473 1.70617C6.09051 1.81723 6.0509 1.94781 6.0509 2.08139C6.0509 2.26051 6.12206 2.4323 6.24872 2.55896C6.37538 2.68561 6.54716 2.75677 6.72629 2.75677Z" fill="#303030"/>
<path d="M7.42922 7.99432C7.43194 7.85688 7.3935 7.72176 7.31884 7.60634C7.24417 7.49092 7.13669 7.40047 7.01022 7.34661C6.88374 7.29275 6.74405 7.27794 6.60909 7.30409C6.47413 7.33024 6.35008 7.39615 6.25288 7.49336C6.15567 7.59056 6.08976 7.71461 6.06361 7.84957C6.03746 7.98453 6.05227 8.12422 6.10613 8.25069C6.15999 8.37717 6.25044 8.48465 6.36586 8.55931C6.48129 8.63398 6.6164 8.67242 6.75384 8.6697C6.93296 8.6697 7.10475 8.59854 7.23141 8.47189C7.35807 8.34523 7.42922 8.17344 7.42922 7.99432Z" fill="#303030"/>
<path d="M8.02187 7.45682C8.09799 7.45682 8.1597 7.39511 8.1597 7.31899C8.1597 7.24286 8.09799 7.18115 8.02187 7.18115C7.94574 7.18115 7.88403 7.24286 7.88403 7.31899C7.88403 7.39511 7.94574 7.45682 8.02187 7.45682Z" fill="#303030"/>
<path d="M8.38025 5.05851C8.37753 4.75379 8.28468 4.4567 8.11341 4.20465C7.94214 3.9526 7.7001 3.75689 7.41779 3.64216C7.13548 3.52743 6.82553 3.49881 6.52699 3.55993C6.22845 3.62104 5.95467 3.76914 5.74016 3.98558C5.52564 4.20201 5.37997 4.47709 5.32152 4.77616C5.26306 5.07524 5.29443 5.38492 5.41166 5.6662C5.5289 5.94747 5.72676 6.18776 5.98032 6.35679C6.23387 6.52581 6.53179 6.61602 6.83652 6.61603C7.04041 6.61604 7.24228 6.57565 7.43048 6.49721C7.61868 6.41877 7.78947 6.30383 7.933 6.15902C8.07653 6.01421 8.18995 5.8424 8.26672 5.65351C8.34348 5.46462 8.38207 5.2624 8.38025 5.05851Z" fill="#303030"/>
<path d="M13.7006 0H2.34316C1.72172 0 1.12573 0.246868 0.686297 0.686297C0.246869 1.12573 0 1.72172 0 2.34316V30.7368C0 31.3582 0.246869 31.9542 0.686297 32.3937C1.12573 32.8331 1.72172 33.08 2.34316 33.08H13.7006C14.3221 33.08 14.9181 32.8331 15.3575 32.3937C15.7969 31.9542 16.0438 31.3582 16.0438 30.7368V2.34316C16.0438 1.72172 15.7969 1.12573 15.3575 0.686297C14.9181 0.246868 14.3221 0 13.7006 0V0ZM8.83511 14.0038C8.84155 14.031 8.84155 14.0594 8.83511 14.0865C8.85502 14.1959 8.85502 14.308 8.83511 14.4173C8.75381 14.6227 8.6089 14.7966 8.42161 14.9135C8.35922 14.9552 8.28879 14.9834 8.21486 14.9962H8.02189V14.9273C8.01522 14.8356 8.01522 14.7434 8.02189 14.6517C8.06409 14.5257 8.12954 14.4089 8.21486 14.3071C8.28075 14.2202 8.3656 14.1495 8.46296 14.1003C8.56875 14.0513 8.67971 14.0143 8.79376 13.9901L8.83511 14.0038ZM0.895916 7.11219V2.9772C0.890415 2.70404 0.939472 2.43253 1.04022 2.17857C1.14096 1.92461 1.29136 1.6933 1.48262 1.4982C1.67387 1.30309 1.90214 1.14811 2.15404 1.04232C2.40594 0.936536 2.67642 0.882077 2.94963 0.882132H6.76761C7.31229 0.882132 7.83466 1.09851 8.2198 1.48365C8.60495 1.8688 8.82132 2.39117 8.82132 2.93585V7.13976C8.82133 7.68571 8.6054 8.20951 8.22065 8.59685C7.83589 8.98419 7.31355 9.20362 6.76761 9.20726H2.94963C2.40369 9.20362 1.88135 8.98419 1.49659 8.59685C1.11184 8.20951 0.895904 7.68571 0.895916 7.13976V7.11219ZM9.74481 17.1189C9.67477 17.3171 9.58228 17.5068 9.46914 17.684C9.3976 17.7937 9.31441 17.8954 9.22104 17.9872C9.15713 18.0541 9.08262 18.11 9.00051 18.1526C8.91442 18.1731 8.82471 18.1731 8.73862 18.1526C8.63408 18.1399 8.53194 18.112 8.43539 18.0699L8.18729 18.001C8.08733 17.9798 7.98402 17.9798 7.88406 18.001L7.67731 18.0837H7.47056C7.37589 18.1102 7.27578 18.1102 7.18111 18.0837C7.10852 18.0506 7.043 18.0038 6.98814 17.9459C6.88126 17.8387 6.78861 17.7183 6.71248 17.5875C6.58763 17.3815 6.48153 17.1647 6.39546 16.9397C6.39546 16.8019 6.32654 16.6778 6.29898 16.54C6.29185 16.4114 6.29185 16.2826 6.29898 16.154C6.30311 15.9754 6.33568 15.7986 6.39546 15.6303C6.45715 15.4632 6.55615 15.3123 6.68491 15.1892C6.80133 15.0736 6.95051 14.9966 7.11219 14.9687C7.18896 14.9482 7.26974 14.9482 7.34651 14.9687C7.48625 14.9782 7.62473 15.0013 7.76001 15.0376L8.02189 15.1616C8.08085 15.1752 8.14212 15.1752 8.20107 15.1616L8.50431 15.0789C8.5865 15.066 8.67021 15.066 8.75241 15.0789H9.00051C9.13866 15.0715 9.27638 15.1 9.40022 15.1616C9.49056 15.2153 9.57004 15.2854 9.63454 15.3684L9.55184 15.4373C9.45808 15.5237 9.37481 15.6209 9.30374 15.7268C9.24852 15.83 9.21123 15.9418 9.19347 16.0576C9.16487 16.308 9.23399 16.5598 9.38644 16.7605C9.44927 16.844 9.5235 16.9182 9.60697 16.981L9.75859 17.05L9.74481 17.1189Z" fill="#303030"/>
</svg>
