<svg width="117" height="13" viewBox="0 0 117 13" fill="none" xmlns="http://www.w3.org/2000/svg">
<path d="M0 1.09368C0 0.485172 0.424218 0 0.946928 0C1.46978 0 1.894 0.485172 1.894 1.09368C1.894 1.69334 1.46978 2.18719 0.946928 2.18719C0.424218 2.18719 0 1.69334 0 1.09368ZM0.128741 3.54539H1.76512V12.8235H0.128741V3.54539Z" fill="white"/>
<path d="M7.7354 0.0969238C9.85664 0.0969238 11.3339 1.79911 11.3339 4.27736C11.3339 6.76446 9.82639 8.47549 7.68235 8.47549H5.33374V12.8235H3.63672V0.0969238H7.7354ZM5.33374 6.81737H7.28079C8.75817 6.81737 9.59901 5.89143 9.59901 4.28621C9.59901 2.68116 8.75817 1.76389 7.28839 1.76389H5.33374V6.81737Z" fill="white"/>
<path d="M12.4973 0.0969238H14.1186V5.09766H14.1565C14.5959 4.01283 15.4671 3.38663 16.6793 3.38663C18.4294 3.38663 19.4748 4.74484 19.4748 6.84391V12.8235H17.8308V7.21425C17.8308 5.84737 17.2398 5.02706 16.0883 5.02706C14.8762 5.02706 14.1337 5.99724 14.1337 7.46126V12.8235H12.4973V0.0969238Z" fill="white"/>
<path d="M20.6182 8.18451C20.6182 5.20356 22.1258 3.37787 24.3986 3.37787C26.6713 3.37787 28.179 5.20356 28.179 8.18451C28.179 11.1743 26.6789 13 24.3986 13C22.1182 13 20.6182 11.1743 20.6182 8.18451ZM26.5122 8.18451C26.5122 6.12967 25.6788 4.94787 24.3986 4.94787C23.1182 4.94787 22.2848 6.12967 22.2848 8.18451C22.2848 10.2484 23.1182 11.4302 24.3986 11.4302C25.6864 11.4302 26.5122 10.2484 26.5122 8.18451Z" fill="white"/>
<path d="M29.3984 3.54532H30.9591V5.09763H30.997C31.4288 4.03933 32.2774 3.3866 33.5047 3.3866C35.2622 3.3866 36.27 4.6919 36.27 6.81733V12.8235H34.6258V7.18785C34.6258 5.79442 34.0653 5.02703 32.9288 5.02703C31.7773 5.02703 31.035 5.97951 31.035 7.41716V12.8235H29.3984V3.54532Z" fill="white"/>
<path d="M44.6026 10.0983C44.3753 11.7917 42.9965 13 41.1707 13C38.8297 13 37.4131 11.1568 37.4131 8.22857C37.4131 5.31822 38.8525 3.37787 41.1026 3.37787C43.3147 3.37787 44.6935 5.19471 44.6935 8.00809V8.66083H39.0647V8.77549C39.0647 10.3894 39.8979 11.4565 41.2085 11.4565C42.1404 11.4565 42.8299 10.9098 43.0495 10.0983H44.6026ZM39.0721 7.32899H43.0571C43.0193 5.9092 42.2465 4.91249 41.1026 4.91249C39.9585 4.91249 39.1556 5.92672 39.0721 7.32899Z" fill="white"/>
<path d="M58.2579 10.2923H52.7881V8.57246C53.7276 6.52647 54.9776 4.24215 57.4321 0.0969238H59.8868V8.63421H61.3945V10.2923H59.8868V12.8235H58.2579V10.2923ZM54.364 8.66075H58.2731V1.63154H58.2429C56.3489 4.7889 55.2352 6.79985 54.364 8.60784V8.66075Z" fill="white"/>
<path d="M69.1548 0.0969238C71.2761 0.0969238 72.7533 1.79911 72.7533 4.27736C72.7533 6.76446 71.2458 8.47549 69.1018 8.47549H66.7532V12.8235H65.0562V0.0969238H69.1548ZM66.7532 6.81737H68.7002C70.1776 6.81737 71.0184 5.89143 71.0184 4.28621C71.0184 2.68116 70.1776 1.76389 68.7078 1.76389H66.7532V6.81737Z" fill="white"/>
<path d="M74.0383 3.54532H75.599V5.124H75.6369C75.9021 4.03934 76.6142 3.39545 77.5537 3.39545C77.7885 3.39545 77.9931 3.43951 78.1142 3.46605V5.23866C77.9855 5.17691 77.6976 5.13285 77.3793 5.13285C76.3263 5.13285 75.6749 5.95315 75.6749 7.26712V12.8235H74.0383V3.54532Z" fill="white"/>
<path d="M78.4333 8.18451C78.4333 5.20356 79.941 3.37787 82.2138 3.37787C84.4865 3.37787 85.9942 5.20356 85.9942 8.18451C85.9942 11.1743 84.4941 13 82.2138 13C79.9334 13 78.4333 11.1743 78.4333 8.18451ZM84.3274 8.18451C84.3274 6.12967 83.494 4.94787 82.2138 4.94787C80.9334 4.94787 80.1 6.12967 80.1 8.18451C80.1 10.2484 80.9334 11.4302 82.2138 11.4302C83.5016 11.4302 84.3274 10.2484 84.3274 8.18451Z" fill="white"/>
<path d="M99.1319 12.8235V3.45723H99.0788L95.7833 12.8235H94.5257L91.2225 3.45723H91.1695V12.8235H89.624V0.0969238H91.5863L95.1242 10.2394H95.1849L98.7153 0.0969238H100.685V12.8235H99.1319Z" fill="white"/>
<path d="M101.982 10.1866C101.982 8.56369 103.05 7.56715 104.944 7.44365L107.126 7.29378V6.57946C107.126 5.54753 106.527 4.93018 105.527 4.93018C104.58 4.93018 103.989 5.45924 103.845 6.28839H102.3C102.391 4.61257 103.618 3.37787 105.588 3.37787C107.52 3.37787 108.755 4.56851 108.755 6.42942V12.8236H107.186V11.2978H107.148C106.686 12.3297 105.679 12.9823 104.633 12.9823C103.073 12.9823 101.982 11.8534 101.982 10.1866ZM107.126 9.34878V8.61677L105.164 8.7578C104.186 8.83724 103.633 9.33994 103.633 10.1337C103.633 10.945 104.209 11.4742 105.088 11.4742C106.232 11.4742 107.126 10.5569 107.126 9.34878Z" fill="white"/>
<path d="M113.287 9.41028L111.521 12.8235H109.749L112.377 8.19327L109.787 3.54535H111.62L113.362 6.90566H113.393L115.112 3.54535H116.916L114.302 8.13152L116.885 12.8235H115.082L113.325 9.41028H113.287Z" fill="white"/>
</svg>
