<svg width="33" height="23" viewBox="0 0 33 23" fill="none" xmlns="http://www.w3.org/2000/svg">
<path d="M32.23 1.60889H29.6863V21.0239H32.23C32.4319 21.0239 32.6257 20.9447 32.7697 20.8032C32.9137 20.6618 32.9964 20.4695 33 20.2676V2.39264C33.0019 2.29037 32.9833 2.18876 32.9454 2.09375C32.9075 1.99873 32.8511 1.91222 32.7794 1.83925C32.7077 1.76629 32.6222 1.70834 32.5279 1.66879C32.4336 1.62923 32.3323 1.60887 32.23 1.60889Z" fill="#303030"/>
<path d="M27.7887 0.000143254H13.2137C13.0387 0.000143254 12.8708 0.0696788 12.7471 0.193453C12.6233 0.317227 12.5538 0.4851 12.5538 0.660143V9.28139H0.72875C0.535473 9.28139 0.350113 9.35817 0.213446 9.49484C0.0767788 9.63151 0 9.81687 0 10.0101L0 12.6914C0 12.8847 0.0767788 13.07 0.213446 13.2067C0.350113 13.3434 0.535473 13.4201 0.72875 13.4201H12.5538V22.0414C12.5538 22.2164 12.6233 22.3843 12.7471 22.5081C12.8708 22.6319 13.0387 22.7014 13.2137 22.7014H27.7887C27.8766 22.7032 27.9639 22.6875 28.0455 22.6552C28.1272 22.6228 28.2016 22.5745 28.2644 22.513C28.3271 22.4515 28.377 22.3782 28.411 22.2972C28.445 22.2162 28.4625 22.1292 28.4625 22.0414V0.660143C28.4625 0.572302 28.445 0.48534 28.411 0.404355C28.377 0.323371 28.3271 0.249993 28.2644 0.188523C28.2016 0.127053 28.1272 0.0787285 28.0455 0.0463808C27.9639 0.014033 27.8766 -0.00168678 27.7887 0.000143254ZM20.625 12.3751C20.4042 12.3779 20.1875 12.3149 20.0025 12.1942C19.8176 12.0735 19.6727 11.9005 19.5863 11.6972C19.4999 11.494 19.4758 11.2696 19.5173 11.0527C19.5587 10.8357 19.6636 10.636 19.8188 10.4788C19.974 10.3217 20.1724 10.2143 20.3889 10.1702C20.6053 10.1261 20.8299 10.1473 21.0342 10.2312C21.2385 10.3151 21.4133 10.4578 21.5363 10.6412C21.6593 10.8247 21.725 11.0405 21.725 11.2614C21.7324 11.4111 21.7095 11.5607 21.6578 11.7013C21.606 11.8419 21.5264 11.9707 21.4236 12.0798C21.3209 12.1889 21.1973 12.2762 21.06 12.3364C20.9228 12.3966 20.7748 12.4285 20.625 12.4301V12.3751Z" fill="#303030"/>
</svg>
