<svg width="24" height="24" viewBox="0 0 24 24" fill="none" xmlns="http://www.w3.org/2000/svg">
<path fill-rule="evenodd" clip-rule="evenodd" d="M23.5887 6.36716C24.3017 2.64947 21.0378 -0.614421 17.3201 0.0985741L6.64619 2.14566C4.32587 2.59066 2.47024 4.34701 1.88069 6.62921C0.703631 11.1857 4.92934 15.3501 9.46662 14.0158C9.59191 13.9789 9.70833 14.0953 9.67148 14.2206C8.33719 18.7579 12.5015 22.9837 17.0581 21.8066C19.3403 21.217 21.0966 19.3614 21.5416 17.0411L23.5887 6.36716ZM17.6497 1.81725C20.1526 1.33723 22.35 3.53463 21.87 6.03755L19.8229 16.7115C19.5064 18.3622 18.253 19.6905 16.6204 20.1122C13.3571 20.9552 10.4061 17.9255 11.3504 14.7144C11.778 13.2602 10.427 11.9092 8.97289 12.3369C5.76175 13.2812 2.73208 10.3302 3.57507 7.06691C3.99683 5.43424 5.3251 4.18091 6.9758 3.86434L17.6497 1.81725Z" fill="#FF510C"/>
<path d="M3.14363 16.8313C3.48534 16.4896 3.48534 15.9356 3.14363 15.5939C2.80193 15.2522 2.24791 15.2522 1.9062 15.5939L0.256282 17.2438C-0.0854272 17.5855 -0.0854272 18.1395 0.256281 18.4813C0.59799 18.823 1.15201 18.823 1.49372 18.4813L3.14363 16.8313Z" fill="#FF510C"/>
<path d="M7.26842 17.6563C7.61013 17.3146 7.61013 16.7606 7.26842 16.4189C6.92671 16.0772 6.3727 16.0772 6.03099 16.4189L4.38107 18.0688C4.03936 18.4105 4.03936 18.9645 4.38107 19.3062C4.72278 19.6479 5.2768 19.6479 5.61851 19.3062L7.26842 17.6563Z" fill="#FF510C"/>
<path d="M8.09338 21.7811C8.43509 21.4394 8.43509 20.8854 8.09338 20.5436C7.75167 20.2019 7.19765 20.2019 6.85595 20.5436L5.20603 22.1936C4.86432 22.5353 4.86432 23.0893 5.20603 23.431C5.54774 23.7727 6.10176 23.7727 6.44347 23.431L8.09338 21.7811Z" fill="#FF510C"/>
</svg>
