<svg width="15" height="14" viewBox="0 0 15 14" fill="none" xmlns="http://www.w3.org/2000/svg">
<path d="M0.53125 2.39062C0.232422 2.39062 0 2.1582 0 1.85938V0.53125C0 0.265625 0.232422 0 0.53125 0H14.3438C14.6094 0 14.875 0.265625 14.875 0.53125V1.85938C14.875 2.1582 14.6094 2.39062 14.3438 2.39062H0.53125ZM0.53125 7.70312C0.232422 7.70312 0 7.4707 0 7.17188V5.84375C0 5.57812 0.232422 5.3125 0.53125 5.3125H14.3438C14.6094 5.3125 14.875 5.57812 14.875 5.84375V7.17188C14.875 7.4707 14.6094 7.70312 14.3438 7.70312H0.53125ZM0.53125 13.0156C0.232422 13.0156 0 12.7832 0 12.4844V11.1562C0 10.8906 0.232422 10.625 0.53125 10.625H14.3438C14.6094 10.625 14.875 10.8906 14.875 11.1562V12.4844C14.875 12.7832 14.6094 13.0156 14.3438 13.0156H0.53125Z" fill="white"/>
</svg>
