<svg width="19" height="17" viewBox="0 0 19 17" fill="none" xmlns="http://www.w3.org/2000/svg">
<path d="M18.5094 2.48738C18.4574 2.36174 18.3693 2.25435 18.2563 2.17879C18.1432 2.10322 18.0103 2.06287 17.8743 2.06285H15.2593C14.8936 1.44081 14.3733 0.923966 13.7488 0.562554C13.1243 0.201142 12.4169 0.00746318 11.6954 0.000346766C11.1579 -0.00670373 10.6244 0.0938242 10.1263 0.296016C9.62819 0.498207 9.17556 0.797978 8.79503 1.17769C8.40339 1.56202 8.09254 2.02078 7.88076 2.52698C7.66898 3.03319 7.56054 3.57663 7.56183 4.12535V4.64871C4.10198 3.73605 1.27206 0.921597 1.24198 0.891518C1.14975 0.798466 1.03284 0.733708 0.905038 0.704868C0.777232 0.676029 0.643846 0.684311 0.520589 0.728737C0.397332 0.773164 0.289335 0.851886 0.209318 0.955633C0.129301 1.05938 0.0805961 1.18383 0.0689376 1.31433C-0.301453 5.42128 0.891359 8.16957 1.95956 9.75167C2.48041 10.5338 3.11403 11.2346 3.83987 11.8314C2.53105 13.3378 0.470266 14.1293 0.447922 14.1379C0.35091 14.1743 0.263364 14.232 0.191825 14.307C0.120285 14.3819 0.066602 14.472 0.0347867 14.5706C0.00297134 14.6692 -0.00615359 14.7737 0.00809349 14.8763C0.0223406 14.9789 0.0595912 15.077 0.117062 15.1632C0.181515 15.2594 0.439328 15.5971 1.06925 15.9125C1.84784 16.3027 2.87652 16.5003 4.12433 16.5003C10.1975 16.5003 15.2721 11.8236 15.7903 5.80628L18.3607 3.23675C18.4569 3.14055 18.5223 3.01801 18.5487 2.88462C18.5752 2.75123 18.5615 2.61299 18.5094 2.48738ZM14.6422 5.0148C14.5243 5.13296 14.4535 5.28996 14.4428 5.45652C14.0931 10.8783 9.56245 15.1253 4.12433 15.1253C3.21683 15.1253 2.57745 15.005 2.12886 14.8607C3.118 14.3235 4.4973 13.3997 5.38417 12.0694C5.43622 11.9912 5.47169 11.9031 5.48838 11.8107C5.50507 11.7182 5.50263 11.6233 5.4812 11.5318C5.45978 11.4403 5.41984 11.3542 5.36383 11.2787C5.30782 11.2033 5.23695 11.1401 5.15558 11.0932C5.11519 11.07 1.38206 8.82957 1.37433 2.84316C2.74933 3.96035 5.263 5.69371 8.13503 6.17667C8.23346 6.19327 8.33433 6.18823 8.43062 6.16191C8.5269 6.13559 8.61631 6.08861 8.69261 6.02425C8.76891 5.95989 8.83028 5.87969 8.87245 5.78921C8.91463 5.69874 8.93659 5.60017 8.93683 5.50035V4.12535C8.93606 3.75861 9.00865 3.39542 9.15033 3.05715C9.29201 2.71889 9.49992 2.41238 9.76183 2.15566C10.0129 1.90412 10.3119 1.70546 10.641 1.57144C10.9702 1.43741 11.3229 1.37073 11.6782 1.37535C12.7662 1.3891 13.7828 2.05253 14.2082 3.02621C14.2619 3.14862 14.35 3.25275 14.4619 3.32586C14.5738 3.39897 14.7045 3.43788 14.8382 3.43785H16.2132L14.6422 5.0148Z" fill="black"/>
</svg>
