<svg width="25" height="25" viewBox="0 0 25 25" fill="none" xmlns="http://www.w3.org/2000/svg">
<path d="M17.9028 0C22.0549 0 24.424 2.34471 24.424 6.509V17.915C24.424 22.0549 22.0671 24.424 17.915 24.424H6.509C2.34471 24.424 0 22.0549 0 17.915V6.509C0 2.34471 2.34471 0 6.509 0H17.9028ZM12.1998 6.72882C11.6381 6.72882 11.1862 7.18066 11.1862 7.74242V11.1862H7.73021C7.46154 11.1862 7.20509 11.2961 7.0097 11.4793C6.82652 11.6747 6.71661 11.9299 6.71661 12.1998C6.71661 12.7616 7.16845 13.2134 7.73021 13.2256H11.1862V16.6816C11.1862 17.2434 11.6381 17.6952 12.1998 17.6952C12.7616 17.6952 13.2134 17.2434 13.2134 16.6816V13.2256H16.6816C17.2434 13.2134 17.6952 12.7616 17.6952 12.1998C17.6952 11.6381 17.2434 11.1862 16.6816 11.1862H13.2134V7.74242C13.2134 7.18066 12.7616 6.72882 12.1998 6.72882Z" fill="#FF510C"/>
</svg>
